# xmcd
#
# Track frame offsets:
#	150
#	14085
#	27761
#	42449
#	59624
#	77882
#	97769
#	119146
#	140141
#	158285
#	172583
#	186617
#	207616
#	223302
#
# Disc length: 3300 seconds
#
# Revision: 1
# Processed by: cddbd v1.4PL0 Copyright (c) Steve Scherf et al.
# Submitted via: CDmax 1.9
#
DISCID=d00ce20e
DTITLE=Southside Johnny and the Asbury Jukes - Going To Jukesville
DYEAR=2002
DGENRE=Rock
TTITLE0=Passion Street
TTITLE1=Baby Dont Lie
TTITLE2=Leaving Behind
TTITLE3=Gladly Go Blind
TTITLE4=She's Still in Love
TTITLE5=Lost in the Night
TTITLE6=No Easy Way Down
TTITLE7=Somebody to Love You
TTITLE8=I Can't Dance
TTITLE9=Change For You Baby
TTITLE10=Lost
TTITLE11=I Will Be Strong
TTITLE12=I Won't Sing
TTITLE13=Tired Skin
EXTD=Four Stars -- Best album since Hearts of Stone!!  \n\nLiam
EXTT0=
EXTT1=
EXTT2=
EXTT3=
EXTT4=
EXTT5=
EXTT6=
EXTT7=
EXTT8=
EXTT9=
EXTT10=
EXTT11=
EXTT12=
EXTT13=
PLAYORDER=
